<svg xmlns="http://www.w3.org/2000/svg" viewBox="0 0 1681 2901"><defs><style>.cls-1{fill:none;stroke:#d4f2ff;stroke-linecap:round;stroke-linejoin:round;}</style></defs><g id="Layer_3" data-name="Layer 3"><line class="cls-1" x1="818.72" y1="1545.32" x2="818.72" y2="175.88"/><line class="cls-1" x1="898.06" y1="1545.32" x2="898.06" y2="175.88"/><line class="cls-1" x1="977.39" y1="1545.32" x2="977.39" y2="175.88"/><line class="cls-1" x1="1056.72" y1="1545.32" x2="1056.72" y2="175.88"/><line class="cls-1" x1="1136.06" y1="1545.32" x2="1136.06" y2="175.88"/><line class="cls-1" x1="1215.39" y1="1545.32" x2="1215.39" y2="175.88"/><line class="cls-1" x1="1294.72" y1="1545.32" x2="1294.72" y2="175.88"/><line class="cls-1" x1="1374.06" y1="1545.32" x2="1374.06" y2="175.88"/><line class="cls-1" x1="1453.39" y1="1545.32" x2="1453.39" y2="175.88"/><line class="cls-1" x1="739.39" y1="247.95" x2="0.5" y2="153.13"/><rect class="cls-1" x="739.39" y="175.88" width="793.33" height="1369.45"/><rect class="cls-1" x="720.5" y="171.39" width="816" height="1408.57"/><rect class="cls-1" x="700.5" y="166.65" width="840" height="1450"/><rect class="cls-1" x="679.29" y="161.61" width="865.45" height="1493.94"/><rect class="cls-1" x="656.75" y="156.26" width="892.5" height="1540.62"/><rect class="cls-1" x="632.76" y="150.57" width="921.29" height="1590.32"/><rect class="cls-1" x="607.17" y="144.49" width="952" height="1643.33"/><rect class="cls-1" x="579.81" y="138" width="984.83" height="1700"/><rect class="cls-1" x="550.5" y="131.04" width="1020" height="1760.71"/><rect class="cls-1" x="519.02" y="123.57" width="1057.78" height="1825.92"/><rect class="cls-1" x="485.11" y="115.52" width="1098.46" height="1896.15"/><rect class="cls-1" x="448.5" y="106.83" width="1142.4" height="1972"/><rect class="cls-1" x="408.83" y="97.42" width="1190" height="2054.17"/><rect class="cls-1" x="365.72" y="87.19" width="1241.74" height="2143.48"/><rect class="cls-1" x="318.68" y="76.02" width="1298.18" height="2240.91"/><rect class="cls-1" x="267.17" y="63.79" width="1360" height="2347.62"/><rect class="cls-1" x="210.5" y="50.34" width="1428" height="2465"/><rect class="cls-1" x="147.87" y="35.48" width="1503.16" height="2594.74"/><rect class="cls-1" x="78.28" y="18.96" width="1586.67" height="2738.89"/><line class="cls-1" x1="1532.72" y1="1545.32" x2="1680.5" y2="2900.5"/><line class="cls-1" x1="1532.72" y1="1473.25" x2="1680.5" y2="2747.87"/><line class="cls-1" x1="1532.72" y1="1401.17" x2="1680.5" y2="2595.24"/><line class="cls-1" x1="1532.72" y1="1329.09" x2="1680.5" y2="2442.61"/><line class="cls-1" x1="1532.72" y1="1257.02" x2="1680.5" y2="2289.97"/><line class="cls-1" x1="1532.72" y1="1184.94" x2="1680.5" y2="2137.34"/><line class="cls-1" x1="1532.72" y1="1112.87" x2="1680.5" y2="1984.71"/><line class="cls-1" x1="1532.72" y1="1040.79" x2="1680.5" y2="1832.08"/><line class="cls-1" x1="1532.72" y1="968.71" x2="1680.5" y2="1679.45"/><line class="cls-1" x1="1532.72" y1="896.64" x2="1680.5" y2="1526.82"/><line class="cls-1" x1="1532.72" y1="824.56" x2="1680.5" y2="1374.18"/><line class="cls-1" x1="1532.72" y1="752.48" x2="1680.5" y2="1221.55"/><line class="cls-1" x1="1532.72" y1="680.41" x2="1680.5" y2="1068.92"/><line class="cls-1" x1="1532.72" y1="608.33" x2="1680.5" y2="916.29"/><line class="cls-1" x1="1532.72" y1="536.26" x2="1680.5" y2="763.66"/><line class="cls-1" x1="1532.72" y1="464.18" x2="1680.5" y2="611.03"/><line class="cls-1" x1="1532.72" y1="392.1" x2="1680.5" y2="458.39"/><line class="cls-1" x1="1532.72" y1="320.03" x2="1680.5" y2="305.76"/><line class="cls-1" x1="1532.72" y1="247.95" x2="1680.5" y2="153.13"/><line class="cls-1" x1="1532.72" y1="175.88" x2="1680.5" y2="0.5"/><line class="cls-1" x1="739.39" y1="1545.32" x2="0.5" y2="2900.5"/><line class="cls-1" x1="739.39" y1="1473.25" x2="0.5" y2="2747.87"/><line class="cls-1" x1="739.39" y1="1401.17" x2="0.5" y2="2595.24"/><line class="cls-1" x1="739.39" y1="1329.09" x2="0.5" y2="2442.61"/><line class="cls-1" x1="739.39" y1="1257.02" x2="0.5" y2="2289.97"/><line class="cls-1" x1="739.39" y1="1184.94" x2="0.5" y2="2137.34"/><line class="cls-1" x1="739.39" y1="1112.87" x2="0.5" y2="1984.71"/><line class="cls-1" x1="739.39" y1="1040.79" x2="0.5" y2="1832.08"/><line class="cls-1" x1="739.39" y1="968.71" x2="0.5" y2="1679.45"/><line class="cls-1" x1="739.39" y1="896.64" x2="0.5" y2="1526.82"/><line class="cls-1" x1="739.39" y1="824.56" x2="0.5" y2="1374.18"/><line class="cls-1" x1="739.39" y1="752.48" x2="0.5" y2="1221.55"/><line class="cls-1" x1="739.39" y1="680.41" x2="0.5" y2="1068.92"/><line class="cls-1" x1="739.39" y1="608.33" x2="0.5" y2="916.29"/><line class="cls-1" x1="739.39" y1="536.26" x2="0.5" y2="763.66"/><line class="cls-1" x1="739.39" y1="464.18" x2="0.5" y2="611.03"/><line class="cls-1" x1="739.39" y1="392.1" x2="0.5" y2="458.39"/><line class="cls-1" x1="739.39" y1="320.03" x2="0.5" y2="305.76"/><line class="cls-1" x1="168.5" y1="2900.5" x2="818.72" y2="1545.32"/><line class="cls-1" x1="336.5" y1="2900.5" x2="898.06" y2="1545.32"/><line class="cls-1" x1="504.5" y1="2900.5" x2="977.39" y2="1545.32"/><line class="cls-1" x1="672.5" y1="2900.5" x2="1056.72" y2="1545.32"/><line class="cls-1" x1="840.5" y1="2900.5" x2="1136.06" y2="1545.32"/><line class="cls-1" x1="1008.5" y1="2900.5" x2="1215.39" y2="1545.32"/><line class="cls-1" x1="1176.5" y1="2900.5" x2="1294.72" y2="1545.32"/><line class="cls-1" x1="1344.5" y1="2900.5" x2="1374.06" y2="1545.32"/><line class="cls-1" x1="1512.5" y1="2900.5" x2="1453.39" y2="1545.32"/><line class="cls-1" x1="739.39" y1="320.03" x2="1532.72" y2="320.03"/><line class="cls-1" x1="739.39" y1="392.1" x2="1532.72" y2="392.1"/><line class="cls-1" x1="739.39" y1="464.18" x2="1532.72" y2="464.18"/><line class="cls-1" x1="739.39" y1="536.26" x2="1532.72" y2="536.26"/><line class="cls-1" x1="739.39" y1="608.33" x2="1532.72" y2="608.33"/><line class="cls-1" x1="739.39" y1="680.41" x2="1532.72" y2="680.41"/><line class="cls-1" x1="739.39" y1="752.48" x2="1532.72" y2="752.48"/><line class="cls-1" x1="739.39" y1="824.56" x2="1532.72" y2="824.56"/><line class="cls-1" x1="739.39" y1="896.64" x2="1532.72" y2="896.64"/><line class="cls-1" x1="739.39" y1="968.71" x2="1532.72" y2="968.71"/><line class="cls-1" x1="739.39" y1="1040.79" x2="1532.72" y2="1040.79"/><line class="cls-1" x1="739.39" y1="1112.87" x2="1532.72" y2="1112.87"/><line class="cls-1" x1="739.39" y1="1184.94" x2="1532.72" y2="1184.94"/><line class="cls-1" x1="739.39" y1="1257.02" x2="1532.72" y2="1257.02"/><line class="cls-1" x1="739.39" y1="1329.09" x2="1532.72" y2="1329.09"/><line class="cls-1" x1="739.39" y1="1401.17" x2="1532.72" y2="1401.17"/><line class="cls-1" x1="739.39" y1="1473.25" x2="1532.72" y2="1473.25"/><line class="cls-1" x1="739.39" y1="247.95" x2="1532.72" y2="247.95"/><line class="cls-1" x1="1512.5" y1="0.5" x2="1453.39" y2="175.88"/><line class="cls-1" x1="1344.5" y1="0.5" x2="1374.06" y2="175.88"/><line class="cls-1" x1="1176.5" y1="0.5" x2="1294.72" y2="175.88"/><line class="cls-1" x1="1008.5" y1="0.5" x2="1215.39" y2="175.88"/><line class="cls-1" x1="840.5" y1="0.5" x2="1136.06" y2="175.88"/><line class="cls-1" x1="672.5" y1="0.5" x2="1056.72" y2="175.88"/><line class="cls-1" x1="504.5" y1="0.5" x2="977.39" y2="175.88"/><line class="cls-1" x1="336.5" y1="0.5" x2="898.06" y2="175.88"/><line class="cls-1" x1="168.5" y1="0.5" x2="818.72" y2="175.88"/><line class="cls-1" x1="739.39" y1="175.88" x2="0.5" y2="0.5"/><rect class="cls-1" x="0.5" y="0.5" width="1680" height="2900"/></g></svg>