<svg id="Layer_1" data-name="Layer 1" xmlns="http://www.w3.org/2000/svg" viewBox="0 0 29.15 21.14"><defs><style>.cls-1{fill:#fff;}</style></defs><path class="cls-1" d="M26,0H3.18A3.19,3.19,0,0,0,0,3.18V18a3.19,3.19,0,0,0,3.18,3.18H26A3.19,3.19,0,0,0,29.15,18V3.18A3.19,3.19,0,0,0,26,0ZM20.35,10.06l7.3-6.86V18a1.86,1.86,0,0,1,0,.34ZM26,1.5a1.7,1.7,0,0,1,1,.31L14.57,13.43,2.21,1.81a1.72,1.72,0,0,1,1-.31ZM1.54,18.3a1.27,1.27,0,0,1,0-.34V3.2l7.29,6.86Zm1.64,1.34a1.78,1.78,0,0,1-.69-.15l7.4-8.4L14.06,15a.76.76,0,0,0,.51.2.79.79,0,0,0,.52-.2l4.17-3.92,7.4,8.4a1.83,1.83,0,0,1-.7.15Z"/></svg>