<svg id="Layer_1" data-name="Layer 1" xmlns="http://www.w3.org/2000/svg" viewBox="0 0 43.9 31.84"><defs><style>.cls-1{fill:#fff;}</style></defs><path class="cls-1" d="M39.11,0H4.79A4.8,4.8,0,0,0,0,4.79V27.05a4.8,4.8,0,0,0,4.79,4.79H39.11a4.8,4.8,0,0,0,4.79-4.79V4.79A4.8,4.8,0,0,0,39.11,0ZM30.65,15.15l11-10.34V27.05a2.31,2.31,0,0,1-.06.52ZM39.11,2.26a2.44,2.44,0,0,1,1.45.47L22,20.23,3.34,2.73a2.44,2.44,0,0,1,1.45-.47ZM2.31,27.57a3.05,3.05,0,0,1-.05-.52V4.82l11,10.33Zm2.48,2a2.59,2.59,0,0,1-1-.23L14.89,16.7l6.29,5.9a1.11,1.11,0,0,0,1.54,0L29,16.7,40.15,29.35a2.43,2.43,0,0,1-1,.23Z"/></svg>